<?xml version="1.0" encoding="UTF-8" standalone="no"?>
<!DOCTYPE svg PUBLIC "-//W3C//DTD SVG 1.1//EN" "http://www.w3.org/Graphics/SVG/1.1/DTD/svg11.dtd">
<!-- 由 Microsoft Visio, SVG Export 生成 logo.svg 页-1 -->
<svg xmlns="http://www.w3.org/2000/svg" xmlns:xlink="http://www.w3.org/1999/xlink" xmlns:ev="http://www.w3.org/2001/xml-events"
		xmlns:v="http://schemas.microsoft.com/visio/2003/SVGExtensions/" width="0.842862in" height="0.771084in"
		viewBox="0 0 60.686 55.518" xml:space="preserve" color-interpolation-filters="sRGB" class="st6">
	<v:documentProperties v:langID="2052" v:metric="true" v:viewMarkup="false"/>

	<style type="text/css">
	<![CDATA[
		.st1 {fill:#ffffff;stroke:none;stroke-linecap:butt;stroke-width:0.09375}
		.st2 {fill:#ea5d5c;stroke:none;stroke-linecap:butt;stroke-width:0.09375}
		.st3 {fill:#4c66af;stroke:none;stroke-linecap:butt;stroke-width:0.09375}
		.st4 {fill:#ffff00;font-family:Times New Roman;font-size:0.416656em}
		.st5 {fill:#3f4651;stroke:none;stroke-linecap:butt;stroke-width:0.09375}
		.st6 {fill:none;fill-rule:evenodd;font-size:12px;overflow:visible;stroke-linecap:square;stroke-miterlimit:3}
	]]>
	</style>

	<g v:mID="0" v:index="1" v:groupContext="foregroundPage">
		<title>页-1</title>
		<v:pageProperties v:drawingScale="0.0393701" v:pageScale="0.0393701" v:drawingUnits="24" v:shadowOffsetX="8.50394"
				v:shadowOffsetY="-8.50394"/>
		<g id="group4-1" transform="translate(10.5,-10.5)" v:mID="4" v:groupContext="group">
			<title>工作表.4</title>
			<g id="shape5-2" v:mID="5" v:groupContext="shape" transform="translate(1.00006,-0.658772)">
				<title>工作表.5</title>
				<path d="M19.11 55.18 L32.72 55.18 C32.72 55.18 34.19 54.88 34.19 51.32 C34.19 47.76 37.37 31.84 18.68 31.84 C0 31.84
							 3.27 50.1 3.27 50.1 C3.27 50.1 2.41 55.52 5.12 55.39 C7.83 55.26 19.11 55.18 19.11 55.18 Z"
						class="st1"/>
			</g>
			<g id="shape6-4" v:mID="6" v:groupContext="shape" transform="translate(1.19055,-5.8972)">
				<title>工作表.6</title>
				<path d="M34.92 50.92 L37.37 50.92 L37.37 55.52 L34.92 55.52 L34.92 50.92 ZM0 50.92 L2.44 50.92 L2.44 55.52 L0 55.52
							 L0 50.92 Z" class="st2"/>
			</g>
			<g id="shape7-6" v:mID="7" v:groupContext="shape" transform="translate(10.2829,-9.25142)">
				<title>工作表.7</title>
				<desc>SAR</desc>
				<v:textBlock v:margins="rect(0,0,0,0)" v:tabSpace="42.5197"/>
				<v:textRect cx="9.38427" cy="52.2919" width="18.77" height="6.45237"/>
				<path d="M0 49.1 L18.76 49.07 L18.77 55.48 L0.01 55.52 L0 49.1 Z" class="st3"/>
				<text x="4.52" y="53.79" class="st4" v:langID="2052"><v:paragraph v:horizAlign="1"/><v:tabList/>SAR</text>			</g>
			<g id="shape8-9" v:mID="8" v:groupContext="shape">
				<title>工作表.8</title>
				<path d="M38.07 43.93 L36.07 43.93 C35.95 38.8 33.79 35.2 30.26 32.99 L34.15 24.95 A1.5874 1.5874 -180 1 0 32.72
							 24.26 L28.86 32.24 A21.1045 21.1045 -180 0 0 19.78 30.45 A21.0807 21.0807 -180 0 0 10.68 32.29 L6.77
							 24.36 A1.5874 1.5874 -180 1 0 5.34 25.06 L9.31 33.1 C5.81 35.3 3.67 38.93 3.58 44.04 L1.59 44.04 A1.5874
							 1.5874 -180 0 0 0 45.63 L0 49.6 A1.5874 1.5874 -180 0 0 1.59 51.18 L3.56 51.18 L3.56 53.14 A2.3811 2.3811
							 -180 0 0 5.94 55.52 L33.72 55.46 A2.3811 2.3811 -180 0 0 36.11 53.08 L36.11 51.13 L38.1 51.13 A1.5874
							 1.5874 -180 0 0 39.69 49.54 L39.69 45.57 A1.5874 1.5874 -180 0 0 38.07 43.93 ZM3.15 49.56 L1.56 49.56
							 L1.56 45.59 L3.15 45.59 L3.15 49.56 ZM34.5 53.03 a0.793701 0.793701 0 0 1 -0.793701 0.793701 L5.93 53.88
							 a0.793701 0.793701 0 0 1 -0.793701 -0.793701 L5.14 44.36 C5.14 33.25 15.37 32.03 19.79 32.02 C24.22
							 32.02 34.48 33.19 34.5 44.3 L34.5 53.03 ZM38.06 49.49 L36.47 49.49 L36.47 45.52 L38.06 45.52 L38.06
							 49.49 Z" class="st5"/>
			</g>
			<g id="shape9-11" v:mID="9" v:groupContext="shape" transform="translate(9.55125,-8.61959)">
				<title>工作表.9</title>
				<path d="M6.14 34.19 L6.9 33.53 L8.25 35.64 A1.01594 1.01594 -180 0 0 9.1 36.1 L9.2 36.1 A1.01594 1.01594 -180 0
							 0 10.05 35.46 L10.75 32.79 L11.46 35.3 L11.46 35.37 A1.02387 1.02387 -180 0 0 13.23 35.6 L14.25 33.68
							 L14.7 34.11 A1.01594 1.01594 -180 0 0 15.41 34.41 L17.36 34.41 a0.793701 0.793701 -180 0 0 0.793701
							 -0.793701 a0.793701 0.793701 -180 0 0 -0.793701 -0.793701 L15.67 32.82 L14.87 32.02 A1.02387 1.02387
							 -180 0 0 13.33 32.15 L12.61 33.5 L11.7 30.26 A1.01594 1.01594 -180 0 0 10.75 29.62 A1.01594 1.01594
							 -180 0 0 9.81 30.26 L8.91 33.69 L7.91 32.1 A1.02387 1.02387 -180 0 0 7.22 31.64 A1.03975 1.03975 -180
							 0 0 6.43 31.87 L5.34 32.83 L3.32 32.83 a0.793701 0.793701 -180 0 0 -0.793701 0.793701 a0.793701 0.793701
							 -180 0 0 0.793701 0.793701 L5.55 34.41 A1.05562 1.05562 -180 0 0 6.14 34.19 ZM16.64 47.58 L4.11 47.58
							 A4.08756 4.08756 -180 0 0 0 51.17 A3.9685 3.9685 -180 0 0 3.97 55.52 L16.5 55.52 A4.08756 4.08756 -180
							 0 0 20.61 51.93 A3.9685 3.9685 -180 0 0 16.64 47.58 ZM16.64 53.93 L4.04 53.93 A2.4446 2.4446 0 0 1 1.6
							 52.03 A2.3811 2.3811 0 0 1 3.93 49.17 L16.53 49.17 A2.4446 2.4446 0 0 1 18.97 51.07 A2.3811 2.3811 0
							 0 1 16.66 53.93 L16.64 53.93 Z" class="st5"/>
			</g>
		</g>
	</g>
</svg>
